# xmcd
#
# Track frame offsets:
#	150
#	20661
#	58306
#	82230
#	112016
#	198375
#	211465
#	248431
#	269960
#	288798
#	320919
#
# Disc length: 4445 seconds
#
# Revision: 1
# Processed by: cddbd v1.5.2PL0 Copyright (c) Steve Scherf et al.
# Submitted via: audiograbber 1.83.01
#
DISCID=b3115b0b
DTITLE=Grateful Dead - 73-03-24 The Spectrum, Philadelphia PA
DYEAR=1900
DGENRE=
TTITLE0=El Paso
TTITLE1=Here Comes Sunshine
TTITLE2=Me and Bobby McGee
TTITLE3=Loser
TTITLE4=Playing In The Band
TTITLE5=Promised Land
TTITLE6=China Cat Sunflower
TTITLE7=I Know You Rider
TTITLE8=Big River
TTITLE9=Stella Blue
TTITLE10=Me and My Uncle
EXTD=
EXTT0=
EXTT1=
EXTT2=
EXTT3=
EXTT4=
EXTT5=
EXTT6=
EXTT7=
EXTT8=
EXTT9=
EXTT10=
PLAYORDER=
